<?xml version="1.0" encoding="UTF-8"?>
<svg id="Capa_1" xmlns="http://www.w3.org/2000/svg" version="1.1" xmlns:xlink="http://www.w3.org/1999/xlink" viewBox="0 0 30 35">
  <!-- Generator: Adobe Illustrator 29.3.1, SVG Export Plug-In . SVG Version: 2.1.0 Build 151)  -->
  <defs>
    <style>
      .st0 {
        fill: #0070cd;
      }
    </style>
  </defs>
  <g id="Page-1">
    <g id="Kear---Medical-Landing-Page">
      <g id="Our-Speciality">
        <g id="Content">
          <g id="_x31_">
            <g id="Icon">
              <g id="Shape">
                <path class="st0" d="M19.7-31.5c-5.1,0-9.2-4-9.2-9h1.4c0,4.2,3.5,7.6,7.8,7.6s7.8-3.4,7.8-7.6h1.4c0,5-4.1,9-9.2,9Z"/>
                <path class="st0" d="M28.9-40.5h-1.4v-5.7c0-.4-.4-.8-.8-.8h-2.3v-1.4h2.3c1.2,0,2.3,1,2.3,2.2v5.7h-.1Z"/>
                <path class="st0" d="M11.2-15.6c-5.1,0-9.2-4-9.2-9h1.4c0,4.2,3.5,7.6,7.8,7.6s7.8-3.4,7.8-7.6h1.4c0,5-4.1,9-9.2,9Z"/>
                <rect id="Rectangle-path" class="st0" x="18.9" y="-31.8" width="1.4" height="7.2"/>
                <rect id="Rectangle-path1" class="st0" x="2" y="-30.3" width="1.4" height="5.7"/>
                <path class="st0" d="M11.9-40.5h-1.4v-5.7c0-1.2,1-2.2,2.3-2.2h2.3v1.4h-2.3c-.5,0-.8.4-.8.8v5.7h-.1Z"/>
                <path class="st0" d="M15.3-45.5c-.4,0-.7-.3-.7-.7v-2.9c0-.4.3-.7.7-.7s.7.3.7.7v2.9c0,.4-.3.7-.7.7Z"/>
                <path class="st0" d="M23.9-45.5c-.4,0-.7-.3-.7-.7v-2.9c0-.4.3-.7.7-.7s.7.3.7.7v2.9c0,.4-.3.7-.7.7Z"/>
                <path class="st0" d="M2.7-29.6c-2.1,0-3.8-1.7-3.8-3.7s1.7-3.7,3.8-3.7,3.8,1.7,3.8,3.7-1.7,3.7-3.8,3.7ZM2.7-35.6c-1.3,0-2.4,1-2.4,2.3s1.1,2.3,2.4,2.3,2.4-1,2.4-2.3-1.1-2.3-2.4-2.3Z"/>
              </g>
            </g>
          </g>
        </g>
      </g>
    </g>
  </g>
  <g>
    <path class="st0" d="M11.6,27.1c0-1.7-.3-3.3-1-4.8s-1.7-2.8-1.7-3.6v-3h3.1c.8,0,1.3-1,2-1.2s1.3.6,2,1,.6.2.6.2h3.4v3.9c.2.1.3.2.6.5.6,1-.3,1.7-.6,2.5-.6,1.3-.1,3.1-.3,4.6h-.8c0-1.7-.3-3.6.5-5.2.8-1.6.6-.9.6-1,0-.3,0-.5-.3-.6-.5.6-1,1.1-1.6,1.7v5.2h-.8v-4.3c-.9,1.3-1.2,2.9-1.1,4.3h-.8c0-1.8.3-3.7,1.5-5.1s2.2-2,2.2-2.7v-1.3h-3.8v4.6l-1.5.8h-.8v-5.4h-3.4v.8c0,.4,1.3,2.6,1.6,3.2.7,1.6,1,3.3,1,5.2,0,0-.8,0-.8,0ZM19.2,16.4h-2.5c-.6,0-1.3-.3-1.7-.7s-.5-.7-1-.3-1.1,1-2.1,1h-2.2v.8h9.5v-.8h.1ZM14.6,17.9h-.8v1.1l.8-.3v-.8ZM14.6,20.4v-.9l-.8.4v.8s.8-.3.8-.3ZM14.6,22.1v-.9l-.8.4v.8s.8-.3.8-.3Z"/>
    <path class="st0" d="M12.4,2.2c0,2-.4,3.8-1.3,5.5-.9,1.7-1,1.5-1.3,2.2s-.1,2.2,0,2.7.4.8.6.9,0,0,.1,0v-2.6c0-.1.1-.6.2-.8,1.1-3.1,7.8-2.6,7.8.8v2.6q0,0,.1,0c.2-.1.6-.6.6-.9,0-.5,0-2.2,0-2.6-.2-.7-.9-1.5-1.3-2.2-.9-1.7-1.3-3.6-1.3-5.5h.8c0,1.8.3,3.6,1.2,5.2s1.3,1.8,1.5,3.1,0,2.2-.3,2.9-.8.9-1,1-1.3,0-1.5,0c-1.5-.2-1.5-3-3.1-2.6s-1.5,2.4-2.7,2.6-.9,0-1,0c-.3,0-.9-.8-1-1.1-.3-.6-.3-2.1-.3-2.9,0-1.2.9-2.1,1.5-3.1.8-1.6,1.3-3.3,1.2-5.2h.8,0ZM17.8,13.6v-2.7c0-.3-.4-1-.6-1.2-1.1-1-4.2-1.1-5.2,0s-.6.9-.6,1.2v2.7c.8-.3,1-1.3,1.6-1.8s1.3-1,2.2-.6c.9.3,1.1,1.5,1.7,2.2s.5.4.9.3h0Z"/>
    <polygon class="st0" points="14.7 17.5 14.7 18.2 13.9 18.5 13.9 17.5 14.7 17.5"/>
  </g>
</svg>