<?xml version="1.0" encoding="UTF-8"?>
<svg id="Capa_1" xmlns="http://www.w3.org/2000/svg" version="1.1" xmlns:xlink="http://www.w3.org/1999/xlink" viewBox="0 0 38 29">
  <!-- Generator: Adobe Illustrator 29.3.1, SVG Export Plug-In . SVG Version: 2.1.0 Build 151)  -->
  <defs>
    <style>
      .st0 {
        fill: #0070cd;
      }
    </style>
  </defs>
  <g id="Page-1">
    <g id="Kear---Medical-Landing-Page">
      <g id="Our-Speciality">
        <g id="Content">
          <g id="_x32_">
            <g id="Icon">
              <g id="Shape">
                <path class="st0" d="M26.1-8.1c-.6,0-1.2,0-1.9,0-2.2-.1-4.7-.3-7.7-1.3-2.2-.7-4.2-1.8-6.1-3.1-1.3-.8-2.2-2-2.5-3.5-.3-1.5,0-3,.9-4.3.7-1.2,2.3-4,4.4-7.8,2.3-4.1,3.6-6.3,5.8-7.2,1.6-.7,3.5-.7,5.6,0h.2c0,0,2.4,2.4,2.4,2.4v2.9l-.9.9h-4c-1,1-2.8,3.5-3.6,5.1-.4.9-.7,1.8-.8,2.8,1.3-1.1,3.6-2.3,6.5-2.3s4.3.6,5.9,1.8c1.4-2.1,3.7-3.3,6.3-3.3s4.3.9,5.7,2.6c1.4,1.6,2.1,3.8,1.9,6-.5,4-4.9,5.9-6.5,6.6-1.4.6-2.6.8-5,1.1-1.4.2-3.5.5-6.3.5ZM21.7-34.3c-.8,0-1.5.1-2.1.4-1.7.7-2.8,2.5-5.1,6.5-2.2,3.8-3.8,6.6-4.4,7.9-.7,1-.9,2.1-.7,3.2.2,1.1.9,2,1.8,2.6,1.8,1.2,3.8,2.2,5.8,2.9,2.9,1,5.2,1.1,7.3,1.2,3.6.2,6.3-.2,8-.5,2.3-.4,3.5-.5,4.7-1,1.5-.6,5.3-2.3,5.6-5.4h0c.2-1.8-.3-3.5-1.5-4.8-1.2-1.3-2.8-2.1-4.6-2.1s-4.4,1.3-5.4,3.3l-.4.9-.7-.6c-1.4-1.3-3.5-2-5.6-2-3.6,0-6,2.3-6.6,3l-.2.2h-.3c0,0-.2,0-.3,0h-.6c0-.1,0-.7,0-.7,0-1.8.3-3.5,1.1-5.1.8-1.8,2.9-4.8,4.2-5.9l.2-.2h4v-1.7l-1.7-1.7c-.8-.2-1.6-.4-2.3-.4Z"/>
                <path class="st0" d="M23.8-12.3c-.1,0-.3,0-.4,0-3.6-.2-5.8-2.2-6.6-3.1l1.1-1c.5.6,2.5,2.5,5.6,2.6,2.5.1,4.3-.9,5.2-1.6l.9,1.2c-1,.7-3,1.9-5.7,1.9Z"/>
                <path class="st0" d="M31.4-16.4c0-.5-.2-2.4,1.1-4,1.8-2.1,4.5-1.7,4.6-1.7l-.2,1.5s-2-.3-3.2,1.2c-.9,1.1-.8,2.4-.8,2.8l-1.5.2Z"/>
              </g>
            </g>
          </g>
        </g>
      </g>
    </g>
  </g>
  <path class="st0" d="M20.1,12.6l1-.2c0,0-.6-1.8-.4-2.3s.2-.2.3-.3l2.8-.8c.6,0,.7.6.8,1l2.1-.6c-.3-.6-.3-1.5.6-1.4s.4.2.5.5c.6,1.5.8,3.4,1.3,4.9.2.6-.3,1-.9.8s-.4-.7-.4-1l-2.1.5.5,2c0,.4-.1.6-.5.7-.8.3-1.8.4-2.7.7-.3,0-.5-.2-.6-.4l-.8-3.2-1.1.2-1,7.9c0,.1,1.5.7,1.8.8,1.7.9,1.3,3.1-.5,3.5-1.9-.1-4.1.2-6,0s-1.7-1.2-1.7-2.4c.2-2.6.8-5.4,1-8v-.3s-5-5-5-5c-.4-.6.2-1.4.9-.9l5.4,5.4c0,.2,0,.3,0,.5-.1,2.8-.9,5.8-1.1,8.6,0,.4.1.7.5.8h5.7c.4,0,.6-.6.3-.9s-1.9-.8-2.4-1.1-.3-.3-.3-.5l1-8.1c-.5.1-1.2.5-1.6,0-.6-.9.9-1.1,1.5-1.2-.1-.4-.4-.8-.7-1.2-1.9-2.3-4.5-4.3-6.5-6.5-.5-.6.3-1.4.9-.9l6.7,6.7c.4.5.7,1,.8,1.6ZM23.3,10.5l-1.2.3c0,0,.1.6.2.8l1.2-.3-.2-.8ZM27,10.8l-2.1.5.3,1.2,2.1-.5-.3-1.3ZM22.8,13.7c0,0,1.1-.2,1.2-.3l-.2-1-1.2.3.2,1ZM24.4,14.7l-1.3.3.2.8,1.3-.3-.2-.8Z"/>
</svg>