<?xml version="1.0" encoding="UTF-8"?>
<svg id="Capa_1" xmlns="http://www.w3.org/2000/svg" version="1.1" xmlns:xlink="http://www.w3.org/1999/xlink" viewBox="0 0 35 27">
  <!-- Generator: Adobe Illustrator 29.3.1, SVG Export Plug-In . SVG Version: 2.1.0 Build 151)  -->
  <defs>
    <style>
      .st0 {
        fill: #0070cd;
      }
    </style>
  </defs>
  <g id="Page-1">
    <g id="Kear---Medical-Landing-Page">
      <g id="Our-Speciality">
        <g id="Content">
          <g id="_x33_">
            <g id="Icon">
              <g id="Shape">
                <path class="st0" d="M77.3-2.9h-3c-.2,0-.4,0-.6-.3-.1-.2-.2-.4-.2-.6,0-1.2-1-2.2-2.2-2.2s-2.2,1-2.2,2.2c0,.2,0,.4-.2.6-.1.2-.3.3-.6.3h-12.9c-.2,0-.4,0-.6-.3-.1-.2-.2-.4-.2-.6,0-1.2-1-2.2-2.2-2.2s-2.2,1-2.2,2.2c0,.2,0,.4-.2.6-.1.2-.3.3-.6.3h-3c-1.2,0-2.2-1-2.2-2.2v-16c0-1.2,1-2.2,2.2-2.2h23.1c.2,0,.4,0,.5.2l3.3,3.3c1.8,1.8,3.4,3.4,5.7,5.7.1.1.2.3.2.5V-5.1c0,1.2-1,2.2-2.2,2.2ZM75-4.4h2.4c.4,0,.7-.3.7-.7v-8.2c-2.1-2.1-3.7-3.7-5.5-5.5l-3.1-3.1h-22.8c-.4,0-.7.3-.7.7V-5.1c0,.4.3.7.7.7h2.4c.3-1.7,1.8-3,3.6-3s3.3,1.3,3.6,3h11.5c.3-1.7,1.8-3,3.6-3s3.3,1.3,3.6,3Z"/>
                <path class="st0" d="M78.1-13.1h-9.5c-.4,0-.7-.3-.7-.7v-8.8c0-.4.3-.7.7-.7s.7.3.7.7v8h8.8c.4,0,.7.3.7.7s-.3.7-.7.7Z"/>
                <path class="st0" d="M52.6-.1c-2,0-3.5-1.5-3.6-3.5,0,0,0-.1,0-.2,0-2,1.6-3.6,3.6-3.6s3.6,1.6,3.6,3.6,0,.1,0,.2c0,1.9-1.7,3.5-3.6,3.5ZM52.6-5.9c-1.2,0-2.2,1-2.2,2.2,0,0,0,0,0,0,0,1.2,1,2.1,2.2,2.1s2.1-.9,2.2-2.1c0,0,0,0,0,0h0c0-1.2-1-2.2-2.2-2.2Z"/>
                <path class="st0" d="M71.4-.1c-2,0-3.5-1.5-3.6-3.5,0,0,0-.1,0-.2,0-2,1.6-3.6,3.6-3.6s3.6,1.6,3.6,3.6,0,.1,0,.2c0,1.9-1.7,3.5-3.6,3.5ZM71.4-5.9c-1.2,0-2.2,1-2.2,2.2,0,0,0,0,0,0,0,1.2,1,2.1,2.2,2.1s2.1-.9,2.2-2.1c0,0,0,0,0,0h0c0-1.2-1-2.2-2.2-2.2Z"/>
                <path class="st0" d="M57.6-10.2c-.4,0-.7-.3-.7-.7v-5.8c0-.4.3-.7.7-.7s.7.3.7.7v5.8c0,.4-.3.7-.7.7Z"/>
                <path class="st0" d="M60.6-13.1h-5.8c-.4,0-.7-.3-.7-.7s.3-.7.7-.7h5.8c.4,0,.7.3.7.7s-.3.7-.7.7Z"/>
                <path class="st0" d="M65.7-21.9h-2.9c-.4,0-.7-.3-.7-.7v-1.5c0-1.2,1-2.2,2.2-2.2s2.2,1,2.2,2.2v1.5c0,.4-.3.7-.7.7ZM63.5-23.3h1.5v-.7c0-.4-.3-.7-.7-.7s-.7.3-.7.7v.7Z"/>
              </g>
            </g>
          </g>
        </g>
      </g>
    </g>
  </g>
  <g>
    <path class="st0" d="M30.2,13.1v.7c-.9,1.1-1.8,2.2-3,3-1.8,1.3-3.4,1.8-5.4.5s-3-3.2-3.5-5.5c0,0-.2.2-.3.2l-1.4-1.9-1.1,1.1,1.3,1.3c.1.7-.2,1.7.2,2.3s.3.3.4.5c.5,1-.4,1.5-.7,2.2s-.4,1-.4,1.2v6.1h-.7v-5.8c0-.8.3-1.6.8-2.3s.6-.6.5-1-.3-.5-.4-.6c-.4-.8-.2-1.5-.3-2.4l-1.1-1.1-1,1v11.1c-.1.6-.6.9-1.2.6s-.3-.4-.4-.7c-.9-3.7-1.2-7.8-2-11.6v-1.1s2.4-1.6,2.4-1.6l-.8-.8h-1.3v-.7h1.6l1.1,1.1,1.6-1.1-1.6-2.3c0,0,.5-.5.6-.5l4.3,5.8.5-.4-4.2-5.8c.9-.9,2.2-1.4,3.5-1.1,3,.5,4.3,3.9,2.5,6.3s-1,.9-1.5,1.4c.2,1.5.9,3.4,2,4.5s3,2.1,4.8,1,2.8-2.4,3.9-3.8h.4ZM17,4.4c-.3,0-.7.2-1,.3s-.5.2-.4.4l3.8,5.2c2.7-2.1,1-6.2-2.4-5.8ZM15.5,8.6l-1.5,1.1,1.1,1.1,1.2-1.2c-.2-.2-.4-.7-.6-.9s0,0-.1,0ZM13.3,23.9v-11.3l1.3-1.3-1.2-1.2-2.2,1.5h0c.6,4.2,1.4,8.2,2.1,12.2h0Z"/>
    <path class="st0" d="M22.3,2c0,.3,0,.5.2.8,1,1,2.7,2,4,2.6s2.4,1,3.7.9v.7c-1.5,0-3-.5-4.4-1.2s-2.3-1.3-3.3-2.1-1.1-.9-.9-1.7h.7Z"/>
    <path class="st0" d="M15.4,2c0,.6,0,1.2.3,1.8l-.6.4c-.4-.6-.4-1.4-.4-2.2h.7Z"/>
    <path class="st0" d="M12.2,7.1v.6h-.7c0-.5-.7-.5-1-.4s-1.4.8-1.4.9c-.5,1.3-1.3,2.5-1.2,4s1.8,3.2,2.6,4.9l1.4,7.5v.4s-.7,0-.7,0c0-.2,0-.3,0-.5-.3-2.4-1-4.8-1.3-7.1-.7-1.5-2-2.6-2.5-4.2s.3-3.7,1.1-5.6c.4-.2,1.4-.9,1.8-1s1,0,1.2,0,.5.4.8.4Z"/>
    <path class="st0" d="M24.5,8.1c1.6-.2,3.2,0,4.1,1.5s.6,1.8-.2,2.9-2,1.6-3,2-1.5-.1-2-.8c-1.1-1.5-1.4-5.2,1.1-5.5ZM24.5,8.8c-1.8.3-1.2,4.1,0,4.9s.5.1.7,0c1-.4,2.5-1.3,3-2.2s-.5-2.2-1.4-2.5-1.8-.3-2.4-.2Z"/>
  </g>
</svg>