<?xml version="1.0" encoding="UTF-8"?>
<svg id="Capa_1" xmlns="http://www.w3.org/2000/svg" version="1.1" xmlns:xlink="http://www.w3.org/1999/xlink" viewBox="0 0 40 30">
  <!-- Generator: Adobe Illustrator 29.3.1, SVG Export Plug-In . SVG Version: 2.1.0 Build 151)  -->
  <defs>
    <style>
      .st0 {
        fill: #0070cd;
      }
    </style>
  </defs>
  <g id="Page-1">
    <g id="Kear---Medical-Landing-Page">
      <g id="Our-Speciality">
        <g id="Content">
          <g id="_x34_">
            <g id="Icon">
              <g id="Shape">
                <path class="st0" d="M73.9-17.7c-.1,0-.3,0-.4-.1-4.8-2.7-10.9-7.3-13.3-14.5-2.2-6.4-1.5-11.5,1.9-13.9,1.9-1.3,4.2-1.6,4.6-1.6,2.7,0,5.3.8,7.3,2.4,2-1.5,4.6-2.4,7.3-2.4s2.7.3,4.6,1.6c3.4,2.4,4.1,7.4,1.9,13.9-2.4,7.1-8.6,11.8-13.3,14.4-.1,0-.3.1-.4.1ZM66.6-46s-2,.2-3.6,1.3c-3.9,2.7-2.2,9.3-1.3,12,2.2,6.4,7.7,10.7,12.2,13.3,4.4-2.6,10-6.9,12.2-13.3.9-2.7,2.6-9.2-1.3-12-1.6-1.1-3.6-1.3-3.6-1.3-2.5,0-4.9.8-6.7,2.4-.3.3-.8.3-1.1,0-1.8-1.5-4.2-2.4-6.8-2.4Z"/>
                <path class="st0" d="M75.5-24.4c0,0-.1,0-.2,0-.3,0-.6-.3-.6-.6l-3-14.4-7.3,6.5c-.2.1-.4.2-.6.2h-9.2c-.5,0-.8-.4-.8-.8s.4-.8.8-.8h8.8l8.1-7.3c.2-.2.5-.3.8-.2.3,0,.5.3.6.6l2.9,14,5.6-7.7c.2-.2.4-.3.7-.3h10.8c.5,0,.8.4.8.9,0,.5-.4.8-.8.8h-10.4s-6.4,8.8-6.4,8.8c-.2.2-.4.3-.7.3Z"/>
              </g>
            </g>
          </g>
        </g>
      </g>
    </g>
  </g>
  <path class="st0" d="M28.9,3.2c.8.1,1.4.5,1.8,1.2,1.8,3.1,1,6.4.8,9.7-.1,2.8.2,5.7-.1,8.6-.1,1.2-.6,2.3-1.1,3.3s-1.2,1.1-2.3.9c-1.3-.8-2.7-1.6-4-2.4-3.2-2.2-3.8-7.4-5.2-10.8-.2-.3-.5-.5-.9-.6v.4h-2.2v-1.6l-.4.5-.8.6v.3c-.3,4.4-1.1,8.8-1.5,13.3s0,.3,0,.4h-.7l1.6-13.6c0,0,0-.2-.2-.3s-.6.2-.7.3l-1,8.2h-1.5v-10.1c0-.3-.6-1.6-.7-2.1s0-.2,0-.3c0-.4.6-1.3.8-1.7s0-.1,0-.1-.4.3-.5.3c-.5.4-.8,1-1,1.6-.3,1.2.1,1.7.4,2.8,1.1,4.4.2,9,0,13.5s0,1,0,1.5h-.7c0-.6,0-1.2,0-1.9.2-4.3,1-8.6,0-12.8s-.4-1.2-.6-1.8c0-.3,0-.7,0-1s.1-.5.2-.7c.4-1.2,1.3-2.1,2.4-2.5l3.2,6c.1,0,.7-.5.8-.6,1.1-1.2,1-3.2-.3-4.3s-2-.9-3-.5l-.2-.6c1.2-.4,2.3-.2,3.4.5s.6.5.8.8v-1.5h2.2v.6h1.6c-.2-.7,0-1.5.8-1.7s2.3-.1,2.8,0,1.3.5,1.5,1.2c.6-.5,1.1-1.1,1.7-1.6s1.3-1.1,2.2-1.2h.5ZM17.8,12.3c.6,0,1.2.4,1.5.9,1.5,3.4,1.9,8.5,5.2,10.6s2.5,1.5,3.7,2.3c.5.2,1,0,1.3-.4s.9-1.9,1-2.3.1-.9.2-1.2c.2-2.2.1-4.5,0-6.7,0-3.6,1.1-7.1-.5-10.5-.7-1.4-2-1.4-3.2-.5l-3.4,3.2-.5-.5s.5-.4.5-.5c.3-.5,0-1.1-.6-1.2-.8,0-1.8,0-2.6,0-.5.2-.6,1,0,1s1.5-.2,1.9.6-.5,1.4-1,1.9l-.4-.6c.2-.3,1-.6.8-1s-.2-.1-.2-.1h-3.7v1.1h1.6l.9.9c0,.1,0,1,0,1.1-.1.3-.7.6-.9.9h-1.6v1ZM17,6.7h-.7v5.9h.7v-5.9ZM11.1,11.2v9.5h.3s.9-7.2.9-7.2v-.8s1-.4,1-.4l-2.4-4.5-.6,1.2.7,2.2ZM17.8,10.6h1.3c.2-.3.6-.4.5-.8s-.4-.5-.5-.7h-1.3v1.5Z"/>
</svg>